<?xml version="1.0" encoding="UTF-8" standalone="no"?>
<svg
   xmlns:dc="http://purl.org/dc/elements/1.1/"
   xmlns:cc="http://creativecommons.org/ns#"
   xmlns:rdf="http://www.w3.org/1999/02/22-rdf-syntax-ns#"
   xmlns:svg="http://www.w3.org/2000/svg"
   xmlns="http://www.w3.org/2000/svg"
   xmlns:xlink="http://www.w3.org/1999/xlink"
   xmlns:sodipodi="http://sodipodi.sourceforge.net/DTD/sodipodi-0.dtd"
   xmlns:inkscape="http://www.inkscape.org/namespaces/inkscape"
   width="253.041"
   height="223"
   viewBox="0 0 253.041 223"
   version="1.1"
   id="svg130"
   sodipodi:docname="cloudy-sunny.svg"
   inkscape:version="0.92.4 (5da689c313, 2019-01-14)">
  <metadata
     id="metadata134">
    <rdf:RDF>
      <cc:Work
         rdf:about="">
        <dc:format>image/svg+xml</dc:format>
        <dc:type
           rdf:resource="http://purl.org/dc/dcmitype/StillImage" />
        <dc:title />
      </cc:Work>
    </rdf:RDF>
  </metadata>
  <sodipodi:namedview
     pagecolor="#ffffff"
     bordercolor="#666666"
     borderopacity="1"
     objecttolerance="10"
     gridtolerance="10"
     guidetolerance="10"
     inkscape:pageopacity="0"
     inkscape:pageshadow="2"
     inkscape:window-width="1920"
     inkscape:window-height="1001"
     id="namedview132"
     showgrid="false"
     inkscape:zoom="2.1165919"
     inkscape:cx="74.297333"
     inkscape:cy="116.79019"
     inkscape:window-x="-9"
     inkscape:window-y="-9"
     inkscape:window-maximized="1"
     inkscape:current-layer="g128" />
  <defs
     id="defs76">
    <linearGradient
       id="a"
       x1="189.224"
       y1="20.181"
       x2="30.814001"
       y2="202.244"
       gradientUnits="userSpaceOnUse"
       gradientTransform="matrix(1.0062281,0,0,1.0062281,158.50786,184)">
      <stop
         offset="0"
         stop-color="#7d5dff"
         id="stop2" />
      <stop
         offset="1"
         stop-color="#29deff"
         id="stop4" />
    </linearGradient>
    <linearGradient
       id="b"
       x1="34.408499"
       y1="33.705488"
       x2="9.3734844"
       y2="6.8738887"
       gradientUnits="userSpaceOnUse"
       gradientTransform="scale(1.0000032,0.99999676)">
      <stop
         offset="0"
         stop-color="#facd0b"
         id="stop7" />
      <stop
         offset="1"
         stop-color="#ffb7a0"
         id="stop9" />
    </linearGradient>
    <filter
       id="c"
       x="116.686"
       y="49.058"
       width="102.926"
       height="102.925"
       filterUnits="userSpaceOnUse">
      <feOffset
         dy="10"
         input="SourceAlpha"
         id="feOffset12" />
      <feGaussianBlur
         stdDeviation="10"
         result="d"
         id="feGaussianBlur14" />
      <feFlood
         flood-color="#ffddbc"
         id="feFlood16" />
      <feComposite
         operator="in"
         in2="d"
         id="feComposite18"
         result="result1" />
      <feComposite
         in="SourceGraphic"
         in2="result1"
         id="feComposite20" />
    </filter>
    <linearGradient
       id="e"
       x1="8.2222242"
       y1="5.6751223"
       x2="37.491554"
       y2="37.893728"
       gradientUnits="userSpaceOnUse">
      <stop
         offset="0"
         stop-color="#ffdb45"
         id="stop23" />
      <stop
         offset="1"
         stop-color="#ffa68b"
         id="stop25" />
    </linearGradient>
    <filter
       id="f"
       x="118.658"
       y="51.657"
       width="104.685"
       height="104.685"
       filterUnits="userSpaceOnUse">
      <feOffset
         dy="10"
         input="SourceAlpha"
         id="feOffset28" />
      <feGaussianBlur
         stdDeviation="10"
         result="g"
         id="feGaussianBlur30" />
      <feFlood
         flood-color="#ffddbc"
         id="feFlood32" />
      <feComposite
         operator="in"
         in2="g"
         id="feComposite34"
         result="result1" />
      <feComposite
         in="SourceGraphic"
         in2="result1"
         id="feComposite36" />
    </filter>
    <linearGradient
       id="h"
       x1="7.1863383"
       y1="4.9601358"
       x2="32.76814"
       y2="33.119645"
       gradientUnits="userSpaceOnUse"
       gradientTransform="scale(1.0000032,0.99999676)">
      <stop
         offset="0"
         stop-color="#ffe05d"
         id="stop39" />
      <stop
         offset="1"
         stop-color="#ffbeaa"
         id="stop41" />
    </linearGradient>
    <filter
       id="i"
       x="124.285"
       y="57.286"
       width="99.058"
       height="99.056"
       filterUnits="userSpaceOnUse">
      <feOffset
         dy="10"
         input="SourceAlpha"
         id="feOffset44" />
      <feGaussianBlur
         stdDeviation="10"
         result="j"
         id="feGaussianBlur46" />
      <feFlood
         flood-color="#ffddbc"
         id="feFlood48" />
      <feComposite
         operator="in"
         in2="j"
         id="feComposite50"
         result="result1" />
      <feComposite
         in="SourceGraphic"
         in2="result1"
         id="feComposite52" />
    </filter>
    <linearGradient
       id="k"
       x1="0.5"
       x2="0.5"
       y2="1"
       gradientUnits="objectBoundingBox">
      <stop
         offset="0"
         stop-color="#fff"
         stop-opacity="0.2"
         id="stop55" />
      <stop
         offset="1"
         stop-color="#fff"
         id="stop57" />
    </linearGradient>
    <linearGradient
       id="n"
       x1="52.172269"
       x2="52.172269"
       y2="104.47759"
       gradientUnits="userSpaceOnUse"
       gradientTransform="scale(1.2741147,0.78485872)"
       y1="-0.0021738762">
      <stop
         offset="0"
         stop-color="#fff"
         id="stop60" />
      <stop
         offset="1"
         stop-color="#f2f2f2"
         id="stop62" />
    </linearGradient>
    <filter
       id="o"
       x="0"
       y="21"
       width="253.041"
       height="202"
       filterUnits="userSpaceOnUse">
      <feOffset
         input="SourceAlpha"
         id="feOffset65" />
      <feGaussianBlur
         stdDeviation="20"
         result="p"
         id="feGaussianBlur67" />
      <feFlood
         flood-color="#fff"
         flood-opacity="0.2"
         id="feFlood69" />
      <feComposite
         operator="in"
         in2="p"
         id="feComposite71"
         result="result1" />
      <feComposite
         in="SourceGraphic"
         in2="result1"
         id="feComposite73" />
    </filter>
    <linearGradient
       inkscape:collect="always"
       xlink:href="#k"
       id="linearGradient941"
       gradientUnits="userSpaceOnUse"
       x1="1.573"
       x2="1.573"
       y2="3.1459999"
       y1="-2.220446e-16" />
    <linearGradient
       inkscape:collect="always"
       xlink:href="#k"
       id="linearGradient943"
       gradientUnits="userSpaceOnUse"
       x1="3.1470001"
       x2="3.1470001"
       y2="6.2940001"
       y1="0" />
    <linearGradient
       inkscape:collect="always"
       xlink:href="#k"
       id="linearGradient945"
       gradientUnits="userSpaceOnUse"
       x1="2.517"
       x2="2.517"
       y2="5.0339999"
       y1="0" />
  </defs>
  <g
     transform="translate(-156.40557,-183.33184)"
     id="g128">
    <rect
       width="218.35149"
       height="218.35149"
       rx="20.124561"
       id="rect78"
       style="fill:url(#a);stroke-width:1.00622797"
       x="158.50786"
       y="184" />
    <g
       transform="matrix(1.014937,0,0,1.014937,-0.83724498,-1.733462)"
       id="g126">
      <g
         transform="translate(-159,-173)"
         id="g116">
        <g
           transform="translate(408,405)"
           id="g108">
          <g
             transform="translate(-126,-49)"
             id="g82"
             style="filter:url(#c)">
            <path
               d="M 16.715,39.056 A 22.161,22.161 0 0 1 7.4,37.027 22.407,22.407 0 0 1 0,31.539 22.356,22.356 0 0 0 35.414,23.522 22.321,22.321 0 0 0 31.543,0 22.412,22.412 0 0 1 37.029,7.4 22.366,22.366 0 0 1 25.412,37.3 22.2,22.2 0 0 1 16.715,39.056 Z"
               transform="matrix(-0.99,-0.1,0.1,-0.99,185.53,111.98)"
               id="path80"
               style="fill:url(#b)"
               inkscape:connector-curvature="0" />
          </g>
          <g
             transform="translate(-126,-49)"
             id="g86"
             style="filter:url(#f)">
            <circle
               cx="22.343"
               cy="22.343"
               r="22.343"
               transform="translate(148.66,71.66)"
               id="circle84"
               style="fill:url(#e)" />
          </g>
          <g
             transform="translate(-126,-49)"
             id="g90"
             style="filter:url(#i)">
            <path
               d="M 16.715,39.056 A 22.161,22.161 0 0 1 7.4,37.027 22.407,22.407 0 0 1 0,31.539 22.356,22.356 0 0 0 35.414,23.522 22.321,22.321 0 0 0 31.543,0 22.412,22.412 0 0 1 37.029,7.4 22.366,22.366 0 0 1 25.412,37.3 22.2,22.2 0 0 1 16.715,39.056 Z"
               transform="translate(154.28,77.29)"
               id="path88"
               style="fill:url(#h)"
               inkscape:connector-curvature="0" />
          </g>
          <rect
             width="10.07"
             height="6.2940001"
             rx="3.1470001"
             transform="translate(0,42.168)"
             id="rect92"
             x="0"
             y="0"
             style="fill:#ffdc4b" />
          <rect
             width="10.07"
             height="6.2940001"
             rx="3.1470001"
             transform="rotate(90,24.231,24.231)"
             id="rect94"
             x="0"
             y="0"
             style="fill:#ffdc4b" />
          <rect
             width="10.07"
             height="6.2940001"
             rx="3.1470001"
             transform="translate(79.93,42.168)"
             id="rect96"
             x="0"
             y="0"
             style="fill:#ffdc4b" />
          <rect
             width="10.07"
             height="6.2940001"
             rx="3.1470001"
             transform="rotate(45,-6.6658356,23.79892)"
             id="rect98"
             x="0"
             y="0"
             style="fill:#ffdc4b" />
          <rect
             width="10.07"
             height="6.2940001"
             rx="3.1470001"
             transform="rotate(90,-15.734,64.196)"
             id="rect100"
             x="0"
             y="0"
             style="fill:#ffdc4b" />
          <rect
             width="10.07"
             height="6.2940001"
             rx="3.1470001"
             transform="rotate(135,36.445832,24.548022)"
             id="rect102"
             x="0"
             y="0"
             style="fill:#ffdc4b" />
          <rect
             width="9.441"
             height="6.2940001"
             rx="3.1470001"
             transform="rotate(45,-46.121142,120.571)"
             id="rect104"
             x="0"
             y="0"
             style="fill:#ffdc4b" />
          <rect
             width="10.07"
             height="6.2940001"
             rx="3.1470001"
             transform="rotate(135,-3.3243121,40.760401)"
             id="rect106"
             x="0"
             y="0"
             style="fill:#ffdc4b" />
        </g>
        <circle
           cx="1.573"
           cy="1.573"
           r="1.573"
           transform="translate(438.839,442.133)"
           id="circle110"
           style="opacity:0.478;fill:url(#linearGradient941)" />
        <circle
           cx="3.1470001"
           cy="3.1470001"
           r="3.1470001"
           transform="translate(453.315,435.839)"
           id="circle112"
           style="opacity:0.31000001;fill:url(#linearGradient943)" />
        <circle
           cx="2.517"
           cy="2.517"
           r="2.517"
           transform="translate(444.504,455.979)"
           id="circle114"
           style="opacity:0.26100003;fill:url(#linearGradient945)" />
      </g>
      <g
         transform="translate(17,3)"
         id="g124">
        <g
           transform="translate(106,180)"
           id="g120"
           style="filter:url(#o)">
          <path
             d="M 53.551,82 Q 52.422,82 51.321,81.891 50.15,82 48.949,82 H 25.52 A 25.520145,25.520145 0 0 1 25.348,30.96 35.148,35.148 0 0 1 94.994,29.86 27.2,27.2 0 0 1 125.608,73.483 22.55,22.55 0 0 1 107.939,82 Z"
             transform="translate(60,81)"
             id="path118"
             style="fill:url(#n)"
             inkscape:connector-curvature="0" />
        </g>
        <path
           d="M 60.78,82 H 56.6 c 0.744,0 1.5,-0.04 2.249,-0.109 0.636,0.062 1.285,0.1 1.929,0.107 z M 32.726,82 H 25.52 A 25.520145,25.520145 0 0 1 25.348,30.96 35.111,35.111 0 0 1 60.245,0 35.691,35.691 0 0 1 64.01,0.2 35.125,35.125 0 0 0 32.879,30.96 25.520115,25.520115 0 0 0 32.726,82 Z m 69.8,-52.136 v 0 c -0.1,-0.668 -0.222,-1.342 -0.362,-2 a 27.552,27.552 0 0 1 7.449,0.011 27.007,27.007 0 0 0 -7.085,1.993 z"
           transform="translate(166,261)"
           id="path122"
           inkscape:connector-curvature="0"
           style="fill:#ffffff" />
      </g>
    </g>
  </g>
</svg>
