<?xml version="1.0" encoding="UTF-8" standalone="no"?>
<svg
   xmlns:dc="http://purl.org/dc/elements/1.1/"
   xmlns:cc="http://creativecommons.org/ns#"
   xmlns:rdf="http://www.w3.org/1999/02/22-rdf-syntax-ns#"
   xmlns:svg="http://www.w3.org/2000/svg"
   xmlns="http://www.w3.org/2000/svg"
   xmlns:xlink="http://www.w3.org/1999/xlink"
   xmlns:sodipodi="http://sodipodi.sourceforge.net/DTD/sodipodi-0.dtd"
   xmlns:inkscape="http://www.inkscape.org/namespaces/inkscape"
   width="300"
   height="300"
   viewBox="0 0 300 300"
   version="1.1"
   id="svg74"
   sodipodi:docname="rain.svg"
   inkscape:version="0.92.4 (5da689c313, 2019-01-14)">
  <metadata
     id="metadata78">
    <rdf:RDF>
      <cc:Work
         rdf:about="">
        <dc:format>image/svg+xml</dc:format>
        <dc:type
           rdf:resource="http://purl.org/dc/dcmitype/StillImage" />
        <dc:title></dc:title>
      </cc:Work>
    </rdf:RDF>
  </metadata>
  <sodipodi:namedview
     pagecolor="#ffffff"
     bordercolor="#666666"
     borderopacity="1"
     objecttolerance="10"
     gridtolerance="10"
     guidetolerance="10"
     inkscape:pageopacity="0"
     inkscape:pageshadow="2"
     inkscape:window-width="1920"
     inkscape:window-height="1001"
     id="namedview76"
     showgrid="false"
     inkscape:zoom="2.0611354"
     inkscape:cx="107.493"
     inkscape:cy="138.50342"
     inkscape:window-x="-9"
     inkscape:window-y="-9"
     inkscape:window-maximized="1"
     inkscape:current-layer="g72" />
  <defs
     id="defs44">
    <linearGradient
       id="a"
       x1="189.224"
       y1="20.181"
       x2="30.814001"
       y2="202.244"
       gradientUnits="userSpaceOnUse"
       gradientTransform="matrix(1.34824,0,0,1.34824,465.18224,109.13217)">
      <stop
         offset="0"
         stop-color="#7d5dff"
         id="stop2" />
      <stop
         offset="1"
         stop-color="#29deff"
         id="stop4" />
    </linearGradient>
    <linearGradient
       id="b"
       x1="0.5"
       x2="0.5"
       y2="1"
       gradientUnits="objectBoundingBox">
      <stop
         offset="0"
         stop-color="#fff"
         id="stop7" />
      <stop
         offset="1"
         stop-color="#c3c3c3"
         id="stop9" />
    </linearGradient>
    <filter
       id="c"
       x="52"
       y="0"
       width="214.10201"
       height="178"
       filterUnits="userSpaceOnUse">
      <feOffset
         input="SourceAlpha"
         id="feOffset12" />
      <feGaussianBlur
         stdDeviation="20"
         result="d"
         id="feGaussianBlur14" />
      <feFlood
         flood-color="#fff"
         flood-opacity="0.2"
         id="feFlood16" />
      <feComposite
         operator="in"
         in2="d"
         id="feComposite18"
         result="result1" />
      <feComposite
         in="SourceGraphic"
         in2="result1"
         id="feComposite20" />
    </filter>
    <linearGradient
       id="f"
       x1="52.172268"
       x2="52.172268"
       y2="104.47759"
       gradientUnits="userSpaceOnUse"
       gradientTransform="scale(1.2741147,0.78485872)"
       y1="-0.0021738762">
      <stop
         offset="0"
         stop-color="#fff"
         id="stop23" />
      <stop
         offset="1"
         stop-color="#f2f2f2"
         id="stop25" />
    </linearGradient>
    <filter
       id="g"
       x="0"
       y="12"
       width="253.041"
       height="202"
       filterUnits="userSpaceOnUse">
      <feOffset
         input="SourceAlpha"
         id="feOffset28" />
      <feGaussianBlur
         stdDeviation="20"
         result="h"
         id="feGaussianBlur30" />
      <feFlood
         flood-color="#fff"
         flood-opacity="0.2"
         id="feFlood32" />
      <feComposite
         operator="in"
         in2="h"
         id="feComposite34"
         result="result1" />
      <feComposite
         in="SourceGraphic"
         in2="result1"
         id="feComposite36" />
    </filter>
    <linearGradient
       id="i"
       x1="0.5"
       x2="0.5"
       y2="1"
       gradientUnits="objectBoundingBox">
      <stop
         offset="0"
         stop-color="#f0fdff"
         id="stop39" />
      <stop
         offset="1"
         stop-color="#65f3ff"
         id="stop41" />
    </linearGradient>
    <linearGradient
       inkscape:collect="always"
       xlink:href="#i"
       id="linearGradient849"
       gradientUnits="userSpaceOnUse"
       x1="9.2697487"
       x2="9.2697487"
       y2="18.539497"
       gradientTransform="scale(0.78923387,1.2670515)"
       y1="0" />
    <linearGradient
       inkscape:collect="always"
       xlink:href="#i"
       id="linearGradient851"
       gradientUnits="userSpaceOnUse"
       x1="9.2697487"
       x2="9.2697487"
       y2="18.539497"
       gradientTransform="scale(0.78923387,1.2670515)"
       y1="0" />
    <linearGradient
       inkscape:collect="always"
       xlink:href="#i"
       id="linearGradient853"
       gradientUnits="userSpaceOnUse"
       x1="9.2697487"
       x2="9.2697487"
       y2="18.539497"
       gradientTransform="scale(0.78923387,1.2670515)"
       y1="0" />
    <linearGradient
       inkscape:collect="always"
       xlink:href="#b"
       id="linearGradient855"
       gradientUnits="userSpaceOnUse"
       x1="37.008419"
       x2="37.008419"
       y2="73.830551"
       gradientTransform="scale(1.2729404,0.78558275)"
       y1="0.00059428788" />
    <linearGradient
       inkscape:collect="always"
       xlink:href="#b"
       id="linearGradient857"
       gradientUnits="userSpaceOnUse"
       x1="33.606312"
       x2="33.606312"
       y2="67.006714"
       gradientTransform="scale(1.1552881,0.86558494)"
       y1="0" />
  </defs>
  <g
     transform="translate(-462,-106)"
     id="g72">
    <rect
       width="292.56808"
       height="292.56808"
       rx="26.9648"
       id="rect46"
       style="fill:url(#a);stroke-width:1.3482399"
       x="465.18225"
       y="109.13218" />
    <g
       transform="matrix(1.3482401,0,0,1.3482401,358.67128,-178.04295)"
       id="g54">
      <g
         transform="translate(54,201)"
         id="g50"
         style="filter:url(#c)">
        <path
           d="M 37.877,58 Q 37.077,58 36.3,57.923 35.472,58 34.623,58 H 18.051 A 18.051,18.051 0 0 1 17.929,21.9 24.86,24.86 0 0 1 67.19,21.126 19.237,19.237 0 0 1 88.843,51.981 15.949,15.949 0 0 1 76.347,58 Z"
           transform="translate(112,60)"
           id="path48"
           style="fill:url(#linearGradient855)"
           inkscape:connector-curvature="0" />
      </g>
      <path
         d="m 42.95,58 h -2.881 c 0.514,0 1.038,-0.029 1.558,-0.077 0.435,0.043 0.88,0.068 1.323,0.075 z M 23.1,58 H 18.051 A 18.051,18.051 0 0 1 17.929,21.9 24.86,24.86 0 0 1 42.612,0 25.243,25.243 0 0 1 45.275,0.141 24.842,24.842 0 0 0 23.256,21.9 18.051,18.051 0 0 0 23.1,58 Z M 72.518,21.124 v 0 c -0.071,-0.472 -0.157,-0.949 -0.256,-1.417 a 19.482,19.482 0 0 1 5.269,0.008 19.1,19.1 0 0 0 -5.012,1.41 z"
         transform="translate(166,261)"
         id="path52"
         style="fill:url(#linearGradient857)"
         inkscape:connector-curvature="0" />
    </g>
    <g
       style="filter:url(#g)"
       id="g58"
       transform="matrix(1.3482401,0,0,1.3482401,431.47624,92.9533)">
      <path
         inkscape:connector-curvature="0"
         style="fill:url(#f)"
         id="path56"
         transform="translate(60,72)"
         d="M 53.551,82 Q 52.422,82 51.321,81.891 50.15,82 48.949,82 H 25.52 A 25.520145,25.520145 0 0 1 25.348,30.96 35.148,35.148 0 0 1 94.994,29.86 27.2,27.2 0 0 1 125.608,73.483 22.55,22.55 0 0 1 107.939,82 Z" />
    </g>
    <path
       style="fill:#ffffff;stroke-width:1.3482399"
       inkscape:connector-curvature="0"
       id="path60"
       d="m 594.31667,300.58226 h -5.63564 c 1.00308,0 2.02235,-0.0539 3.03219,-0.14696 0.85748,0.0835 1.73248,0.13483 2.60075,0.14427 z m -37.82353,0 h -9.71541 a 34.407281,34.407281 0 0 1 -0.2319,-68.81417 47.338056,47.338056 0 0 1 47.04953,-41.74151 48.120035,48.120035 0 0 1 5.07612,0.26965 47.356931,47.356931 0 0 0 -41.97206,41.47186 34.407241,34.407241 0 0 0 -0.20628,68.81417 z m 94.10715,-70.29184 v 0 c -0.13481,-0.90062 -0.2993,-1.80934 -0.48806,-2.69648 a 37.14671,37.14671 0 0 1 10.04305,0.0149 36.411919,36.411919 0 0 0 -9.55229,2.68704 z" />
    <g
       transform="matrix(1.3482401,0,0,1.3482401,-187.36593,-137.40834)"
       id="g70">
      <path
         d="m 7.314,0 c 1.143,0 1.662,0.344 2.718,2.059 2.35,3.81 4.6,11.219 4.6,14.116 A 7.316,7.316 0 0 1 0,16.174 C 0,13.44 2.063,6.682 4.371,2.449 5.347,0.654 6.009,0 7.314,0 Z"
         transform="matrix(0.848,0.53,-0.53,0.848,550.447,337.535)"
         id="path64"
         style="fill:url(#linearGradient849)"
         inkscape:connector-curvature="0" />
      <path
         d="m 7.314,0 c 1.143,0 1.662,0.344 2.718,2.059 2.35,3.81 4.6,11.219 4.6,14.116 A 7.316,7.316 0 0 1 0,16.174 C 0,13.44 2.063,6.682 4.371,2.449 5.347,0.654 6.009,0 7.314,0 Z"
         transform="matrix(0.848,0.53,-0.53,0.848,582.447,337.535)"
         id="path66"
         style="fill:url(#linearGradient851)"
         inkscape:connector-curvature="0" />
      <path
         d="m 7.314,0 c 1.143,0 1.662,0.344 2.718,2.059 2.35,3.81 4.6,11.219 4.6,14.116 A 7.316,7.316 0 0 1 0,16.174 C 0,13.44 2.063,6.682 4.371,2.449 5.347,0.654 6.009,0 7.314,0 Z"
         transform="matrix(0.848,0.53,-0.53,0.848,613.447,337.535)"
         id="path68"
         style="fill:url(#linearGradient853)"
         inkscape:connector-curvature="0" />
    </g>
  </g>
</svg>
