<svg xmlns="http://www.w3.org/2000/svg" width="1920" height="1249.13" viewBox="0 0 1920 1249.13"><g transform="translate(0)"><g transform="translate(0)"><path d="M0,0H1920V1186L0,1220Z" transform="translate(0)" fill="#0e77ff"/><path d="M2452.328,1015.466C2186.657,979.494,1392,743.217,1392,743.217v388H3312v-370S2734.169,1055.185,2452.328,1015.466Z" transform="translate(-1392 117.913)" fill="#fff"/><path d="M1003.519,333.21l-45.692,26.38V306.829Z" transform="translate(228.872 174.944)" fill="#209cd9"/><path d="M29.195,16.855,0,33.711V0Z" transform="matrix(0.391, 0.921, -0.921, 0.391, 1033.029, 324.538)" fill="#209cd9"/><path d="M19.972,11.531,0,23.062V0Z" transform="matrix(0.966, 0.259, -0.259, 0.966, 1439.351, 951.103)" fill="#209cd9"/><path d="M1003.519,333.21V385.97l-45.692-26.38Z" transform="translate(675.48 51.944)" fill="#fff"/><path d="M29.977,0V34.614L0,17.307Z" transform="matrix(0.616, 0.788, -0.788, 0.616, 1109.081, 219.141)" fill="#fff"/><path d="M45.692,0V52.761L0,26.38Z" transform="translate(994.812 733.644) rotate(83)" fill="#68bae5"/><path d="M40.657,0V46.947L0,23.473Z" transform="matrix(0.545, 0.839, -0.839, 0.545, 1677.373, 800.173)" fill="#a7d3ec"/><path d="M282.269,0V325.936L0,162.967Z" transform="translate(1896.906 449.127) rotate(97)" fill="#68bae5"/><path d="M64.18,0V87.166L0,43.583Z" transform="translate(156.728 526.683) rotate(-130)" fill="#68bae5"/><path d="M123.031,0V142.063L0,71.032Z" transform="translate(1679 906.933) rotate(93)" fill="none"/><path d="M77.583,0V89.585L0,44.792Z" transform="translate(1621.165 709.537) rotate(177)" fill="none"/><path d="M77.583,0V89.585L0,44.792Z" transform="translate(1107.976 584.537) rotate(177)" fill="none"/><path d="M45.692,0V52.761L0,26.38Z" transform="matrix(0.788, 0.616, -0.616, 0.788, 1219.021, 307.3)" fill="#a7d3ec"/><path d="M268.751,0V310.326L124.3,226.926,0,155.163Z" transform="translate(355.966 142.739) rotate(93)" fill="none"/><circle cx="42" cy="42" r="42" transform="translate(1295.294 485)" fill="#0e77ff"/><path d="M1046.028,333.21V435.056l-88.2-50.923Z" transform="translate(-632.519 496.944)" fill="#fff"/><path d="M29.977,0V34.614L0,17.307Z" transform="matrix(0.616, 0.788, -0.788, 0.616, 59.276, 665.141)" fill="#fff"/><path d="M101.763,0V117.505L0,58.753Z" transform="matrix(0.342, 0.94, -0.94, 0.342, 124.737, 73.767)" fill="#68bae5"/></g><path d="M282.011,0V325.638L0,162.819Z" transform="matrix(-0.342, 0.94, -0.94, -0.342, 617.632, 413.017)" fill="none" stroke="#a7d3ec" stroke-width="1"/><path d="M228.027,0V263.3L0,131.651Z" transform="matrix(0.766, -0.643, 0.643, 0.766, 15.586, 1037.289)" fill="none" stroke="#a7d3ec" stroke-width="1"/></g></svg>